<svg width="82" height="81" viewBox="0 0 82 81" fill="none" xmlns="http://www.w3.org/2000/svg">
<path fill-rule="evenodd" clip-rule="evenodd" d="M81.013 39.5297L62.157 29.86C61.496 27.2634 59.1422 25.3429 56.3399 25.3429C53.329 25.3429 50.8359 27.5598 50.4039 30.4503L32.2223 45.4501C31.1743 44.5562 29.8148 44.0166 28.3294 44.0166C26.5385 44.0166 24.9308 44.8009 23.8311 46.0447L1.29362 35.0264C3.74916 15.281 20.5904 0 41.0008 0C62.9385 0 80.753 17.6537 81.013 39.5297ZM22.3924 50.9069L0.987915 40.4425C1.21714 62.3454 19.0437 80.0302 41.0008 80.0302C61.5985 80.0302 78.5614 64.4672 80.7719 44.4587L80.5419 44.9073L61.1355 34.9553C60.0401 36.4082 58.2997 37.3474 56.3399 37.3474C54.6677 37.3474 53.1552 36.6636 52.0668 35.5604L34.3291 50.1939C34.2365 53.4279 31.5858 56.0211 28.3294 56.0211C25.3162 56.0211 22.8215 53.8008 22.3924 50.9069Z" fill="#FAFAFB"/>
</svg>
